HIERARCHY
ROOT Hips
{
  OFFSET 0 0 0
  CHANNELS 6 Xposition Yposition Zposition Zrotation Yrotation Xrotation
  JOINT LeftThigh
  {
    OFFSET 8.409438 0 -5.917753
    CHANNELS 3 Zrotation Yrotation Xrotation
    JOINT LeftLeg
    {
      OFFSET 0 0 -42.358652
      CHANNELS 3 Zrotation Yrotation Xrotation
      JOINT LeftFoot
      {
        OFFSET 0 0 -39.357303
        CHANNELS 3 Zrotation Yrotation Xrotation
      }
    }
  }
  JOINT RightThigh
  {
    OFFSET -8.409438 0 -5.917753
    CHANNELS 3 Zrotation Yrotation Xrotation
    JOINT RightLeg
    {
      OFFSET 0 0 -42.358652
      CHANNELS 3 Zrotation Yrotation Xrotation
      JOINT RightFoot
      {
        OFFSET 0 0 -39.357303
        CHANNELS 3 Zrotation Yrotation Xrotation
      }
    }
  }
  JOINT SpineLow
  {
    OFFSET 0 0 4.719101
    CHANNELS 3 Zrotation Yrotation Xrotation
    JOINT SpineMid
    {
      OFFSET 0 0 12.899191
      CHANNELS 3 Zrotation Yrotation Xrotation
      JOINT Chest
      {
        OFFSET 0 0 12.899191
        CHANNELS 3 Zrotation Yrotation Xrotation
        JOINT LeftShoulder
        {
          OFFSET 7.550562 1.41573 9.438202
          CHANNELS 3 Zrotation Yrotation Xrotation
          JOINT LeftArm
          {
            OFFSET 9.155056 0 4.247191
            CHANNELS 3 Zrotation Yrotation Xrotation
            JOINT LeftForearm
            {
              OFFSET 0 0 25.771955
              CHANNELS 3 Zrotation Yrotation Xrotation
              JOINT LeftHand
              {
                OFFSET 0 0 25.197169
                CHANNELS 3 Zrotation Yrotation Xrotation
              }
            }
          }
        }
        JOINT RightShoulder
        {
          OFFSET -7.550562 1.41573 9.438202
          CHANNELS 3 Zrotation Yrotation Xrotation
          JOINT RightArm
          {
            OFFSET -9.155056 0 4.247191
            CHANNELS 3 Zrotation Yrotation Xrotation
            JOINT RightForearm
            {
              OFFSET 0 0 -25.771955
              CHANNELS 3 Zrotation Yrotation Xrotation
              JOINT RightHand
              {
                OFFSET 0 0 -25.197169
                CHANNELS 3 Zrotation Yrotation Xrotation
              }
            }
          }
        }
        JOINT Neck
        {
          OFFSET 0 0 15.101124
          CHANNELS 3 Zrotation Yrotation Xrotation
          JOINT Head
          {
            OFFSET 0 0 11.325843
            CHANNELS 3 Zrotation Yrotation Xrotation
            End Site
            {
              OFFSET 0 0 14.157303
            }
          }
        }
      }
    }
  }
}
MOTION
Frames: 16
Frame Time: 0.0
0.0  101.685394  0.0  -0.369712  22.583828  -97.987272  17.859056  -27.76557  12.86606  10.239224  1.533918  38.910767  4.920196  3.475604  2.10938  -9.078976  0.984387  -35.945517  4.14617  10.583075  54.490524  8.047972  2.84942  2.620714  -1.646647  0.111864  2.444851  -4.484426  0.471533  6.671678  -4.484426  0.471533  6.671678  -3.478733  21.33558  9.146322  148.653014  26.524631  -174.828931  -41.440712  -17.436555  95.866976  76.630833  -5.144821  11.623168  13.821827  -7.734869  15.143109  7.193691  83.600672  -42.465059  -20.503779  -5.199913  -77.514477  61.905727  0.362221  29.782393  -6.094027  -1.072748  -4.577053  -4.578725  -0.759059  -3.443793  
0.0  101.685394  0.0  -0.494916  22.71994  -97.889639  16.723585  -27.430199  12.786524  10.207016  2.546253  39.120395  6.517792  3.387701  2.028226  -9.203594  1.362953  -36.523474  3.699174  10.391441  54.729114  8.094573  3.001573  2.710902  -1.676426  0.142622  2.436248  -4.562739  0.557871  6.645818  -4.562738  0.557871  6.645819  -3.330753  21.044121  8.889395  147.751531  26.808237  -174.991786  -39.260856  -17.269942  97.078671  77.361061  -3.730406  8.036792  14.080508  -7.8422  15.139001  9.79697  83.824915  -40.203937  -21.357768  -4.933517  -77.035134  62.148175  0.315965  29.355345  -6.121978  -1.260836  -4.668237  -4.601247  -0.899032  -3.514086  
0.0  101.685394  0.0  -0.500394  22.738235  -97.804759  16.208821  -27.256841  12.599921  10.206562  3.202721  39.412547  7.438335  3.385531  1.954802  -8.995626  1.672081  -37.013072  3.401492  10.178844  55.005336  8.080772  3.138383  2.864895  -1.650553  0.169338  2.446244  -4.489321  0.628854  6.671607  -4.489321  0.628854  6.671607  -3.382845  20.947488  8.625013  147.68449  26.932712  -175.028163  -39.266339  -17.149437  97.250197  77.323928  -3.985208  7.677129  14.069889  -7.80277  15.094165  7.835709  83.525126  -42.148525  -21.399268  -4.861363  -77.047027  62.417266  0.155477  28.946686  -6.301721  -1.420874  -4.86055  -4.737705  -1.01574  -3.660341  
0.0  101.685394  0.0  -0.483657  22.696388  -97.735539  16.419141  -27.337349  12.180565  10.312496  3.310024  39.857905  7.436861  3.472729  1.811515  -8.781803  1.997063  -37.467136  3.260603  9.777983  55.310115  7.880164  3.293247  3.012124  -1.623389  0.22288  2.465522  -4.409547  0.773505  6.721085  -4.409547  0.773505  6.721085  -3.58554  20.79618  8.340321  147.495301  27.2003  -175.090287  -39.525212  -17.038638  97.361081  77.244989  -4.300885  7.289271  14.103728  -7.857701  14.979141  6.272959  83.111731  -43.709085  -21.529759  -4.61975  -76.972261  62.56573  0.011075  28.409861  -6.478205  -1.682058  -5.087142  -4.872708  -1.20788  -3.833427  
0.0  101.685394  0.0  -0.371589  22.700178  -97.700047  17.130719  -27.614701  11.625454  10.507707  3.051241  40.491328  6.560458  3.604516  1.602156  -8.783025  2.302715  -37.853934  3.299403  9.250783  55.57696  7.504901  3.480264  3.134471  -1.588396  0.28977  2.502622  -4.306686  0.954893  6.818677  -4.306686  0.954893  6.818677  -3.842393  20.774599  8.120563  147.399373  27.601666  -175.140946  -39.659839  -16.902178  97.574283  77.215126  -4.674377  6.89572  14.039837  -7.868138  14.804651  5.213554  82.646727  -44.78625  -21.452109  -4.652635  -77.138971  62.736524  -0.140694  28.050937  -6.669387  -1.951028  -5.343257  -5.019073  -1.405288  -4.028922  
0.0  101.685394  0.0  -0.246218  22.708691  -97.701314  18.183138  -28.066232  10.990537  10.633276  2.719887  41.231086  5.223472  3.688742  1.309934  -8.843764  2.525515  -38.063182  3.423847  8.720754  55.764718  7.090044  3.676027  3.188461  -1.547279  0.372199  2.547564  -4.185162  1.178423  6.937093  -4.185162  1.178423  6.937093  -4.231869  20.73633  7.973181  147.11159  28.199034  -175.177439  -40.03511  -16.813654  97.712859  77.280616  -5.077662  6.487921  13.905343  -7.908611  14.588937  4.953386  82.16098  -45.114378  -21.530156  -4.633176  -77.27065  62.74657  -0.210256  27.704947  -7.177183  -2.295105  -5.679514  -5.404056  -1.655074  -4.28673  
0.0  101.685394  0.0  -0.107299  22.733325  -97.709989  19.264245  -28.539667  10.388275  10.589936  2.502957  41.978904  3.930713  3.777231  1.049461  -9.172461  2.643199  -38.286249  3.642574  8.382902  55.924932  6.903656  3.838778  3.221611  -1.494903  0.459173  2.585915  -4.032295  1.412595  7.037831  -4.032295  1.412596  7.037831  -4.541254  20.718105  8.006192  146.949151  28.892151  -175.139343  -40.148011  -16.764452  97.923009  77.401959  -5.455853  6.006239  13.718207  -7.944452  14.433284  5.136944  81.682813  -44.959367  -21.504243  -4.78809  -77.593521  62.698551  -0.172327  27.610199  -7.416305  -2.576687  -5.859754  -5.586615  -1.861941  -4.426132  
0.0  101.685394  0.0  -0.032982  22.702318  -97.735841  20.182178  -28.958566  9.788174  10.445882  2.418373  42.702192  2.86116  3.813447  0.758991  -9.415618  2.60886  -38.386401  3.818477  8.287703  55.980878  6.82798  3.968413  3.230567  -1.436623  0.545885  2.611195  -3.863429  1.644495  7.103455  -3.863429  1.644496  7.103456  -4.877694  20.696984  8.09771  146.825349  29.678095  -175.087696  -40.194389  -16.900325  98.104525  77.498867  -5.754689  5.402288  13.242022  -8.016934  14.236546  7.099007  81.323649  -43.312469  -22.106777  -4.478615  -77.450826  62.366413  0.051629  27.023299  -8.000724  -2.878369  -6.055393  -6.028516  -2.080178  -4.579227  
0.0  101.685394  0.0  -0.056114  22.693677  -97.73198  21.027289  -29.391205  9.140571  9.971554  2.601106  43.302172  2.452987  3.931612  0.668092  -9.890451  2.435662  -38.573346  4.066631  8.332974  56.000068  6.961038  4.038505  3.278696  -1.369735  0.608861  2.623405  -3.673805  1.809859  7.135313  -3.673805  1.809859  7.135313  -5.196327  20.685185  8.263855  146.593117  30.54842  -174.950075  -40.181406  -17.116387  98.218041  77.724909  -6.015481  4.694162  12.976344  -8.105474  14.197419  7.840488  81.058285  -42.600284  -22.274731  -4.709103  -77.79923  62.34198  0.119404  26.982716  -8.282496  -3.116476  -6.109637  -6.242253  -2.255329  -4.624374  
0.0  101.685394  0.0  -0.210227  22.6036  -97.782082  21.790909  -29.792512  8.465438  9.311109  2.948364  43.820337  2.450501  4.002516  0.648008  -10.286394  2.096969  -38.709243  4.262914  8.424813  56.008075  7.17772  4.140695  3.314366  -1.316111  0.657985  2.625224  -3.522127  1.938246  7.139406  -3.522127  1.938246  7.139405  -5.448492  20.649973  8.50713  146.450769  31.507802  -174.68825  -40.172472  -17.401181  98.257862  78.046451  -6.246467  3.90581  12.843388  -8.28492  14.251206  8.508127  80.962508  -41.978853  -22.996989  -4.327282  -77.593276  61.95928  0.291854  26.358764  -8.729783  -3.325708  -6.167506  -6.579877  -2.407073  -4.67301  
0.0  101.685394  0.0  -0.37764  22.589612  -97.789295  22.440439  -30.142148  7.830889  8.512831  3.442094  44.165358  2.803615  4.05195  0.686854  -10.71781  1.784367  -38.903715  4.492196  8.509762  56.039768  7.349948  4.181623  3.353736  -1.261785  0.679452  2.625546  -3.371503  1.991004  7.140944  -3.371503  1.991004  7.140944  -5.699761  20.719181  8.766688  146.225835  32.572828  -174.292612  -40.106122  -17.799705  98.236245  78.388769  -6.475712  3.025529  12.537708  -8.401296  14.314835  9.041279  81.005427  -41.530655  -23.216595  -4.46972  -77.878063  62.010878  0.216486  26.276721  -8.98784  -3.451211  -6.188779  -6.774639  -2.498357  -4.69219  
0.0  101.685394  0.0  -0.566151  22.426085  -97.821623  22.952069  -30.331554  7.334795  7.928959  3.772269  44.413543  3.183562  4.066745  0.757904  -10.939326  1.513931  -39.128705  4.607049  8.47593  56.138486  7.513029  4.105268  3.396027  -1.217078  0.692825  2.62554  -3.248009  2.022693  7.141732  -3.248009  2.022693  7.141732  -5.920949  20.7743  8.958898  146.26363  33.655363  -173.678348  -39.973507  -18.258645  98.176272  78.750358  -6.726282  2.091316  12.415709  -8.521472  14.430252  9.278817  81.13633  -41.379035  -23.448581  -4.501575  -78.081092  62.056152  0.128766  26.12093  -9.282767  -3.528336  -6.248543  -6.996844  -2.552379  -4.739871  
0.0  101.685394  0.0  -0.64088  22.328711  -97.777431  23.385069  -30.390476  7.006491  7.44914  3.934474  44.468729  3.506073  4.112949  0.847063  -10.979932  1.430396  -39.379045  4.60584  8.43853  56.252303  7.488946  3.947571  3.413386  -1.180107  0.703403  2.620555  -3.146097  2.047349  7.128824  -3.146097  2.047349  7.128824  -6.110507  20.924871  9.130777  146.337839  34.806962  -172.864549  -39.792054  -18.699694  98.147783  79.133225  -6.96789  1.12425  12.169586  -8.560332  14.575108  9.693144  81.308007  -41.097294  -23.630132  -4.55445  -78.37437  62.137461  -0.046759  26.012912  -9.448161  -3.557833  -6.288757  -7.121375  -2.572226  -4.771466  
0.0  101.685394  0.0  -0.727566  22.072471  -97.746673  23.802101  -30.385742  6.774299  7.215851  3.848211  44.432781  3.580724  4.139504  0.88409  -10.808523  1.413896  -39.668575  4.538114  8.225073  56.425471  7.395636  3.920889  3.442992  -1.13835  0.712476  2.626357  -3.030924  2.067889  7.145651  -3.030924  2.067889  7.145651  -6.334477  21.055944  9.186641  146.666222  35.998938  -171.773514  -39.584172  -19.087142  98.194476  79.529388  -7.110661  0.125752  11.998681  -8.578299  14.657134  22.168072  82.149097  -30.356061  -25.590274  -3.579536  -77.562799  62.172009  -0.217965  26.000162  -9.613937  -3.597827  -6.390553  -7.246673  -2.598963  -4.849423  
0.0  101.685394  0.0  -0.771028  21.86006  -97.641639  24.125122  -30.335324  6.631834  7.185815  3.701927  44.315328  3.551184  4.146815  1.018634  -10.416337  1.476063  -39.955768  4.328975  8.180402  56.550643  7.304404  3.846068  3.470051  -1.121111  0.716641  2.626775  -2.983397  2.077419  7.147181  -2.983397  2.077419  7.147181  -6.53179  21.25279  9.216175  147.133501  37.302458  -170.420527  -39.405789  -19.508538  98.295731  79.896511  -7.116998  -0.895612  11.855197  -8.498122  14.724156  23.624199  82.155015  -29.053309  -25.647208  -3.516442  -78.0455  62.085894  -0.369542  26.062019  -9.652051  -3.612056  -6.505902  -7.2761  -2.607437  -4.93638  
0.0  101.685394  0.0  -0.857317  21.493919  -97.559618  24.384627  -30.286105  6.551462  7.285899  3.576874  44.13633  3.52427  4.116347  1.154242  -10.171312  1.579077  -40.380744  4.327431  7.807252  56.859507  7.261459  3.806562  3.462025  -1.10879  0.716224  2.627587  -2.949769  2.07499  7.149818  -2.949769  2.074991  7.149818  -6.756954  21.42355  9.204024  147.963569  38.678729  -168.71726  -39.200988  -20.107543  98.386703  80.237518  -7.038775  -1.932278  11.795554  -8.397004  14.787896  25.811697  82.070464  -27.080574  -25.648216  -3.432149  -78.642114  61.907062  -0.479121  26.204973  -9.67021  -3.61667  -6.630324  -7.290534  -2.608753  -5.029875  
